<svg width="146" height="23" viewBox="0 0 146 23" fill="none" xmlns="http://www.w3.org/2000/svg">
<path d="M7.40399 4.11662L3.74441 6.8613L2.37207 10.0634L2.82952 13.2656L4.20186 16.0102L7.86144 15.0954L8.31888 11.8932V7.31875C8.31888 6.95279 8.92881 4.72655 9.23378 3.65918L7.40399 4.11662Z" fill="#A4860D" fill-opacity="0.67"/>
<path d="M15.6384 3.20257L19.298 5.94725L20.6703 9.14938V12.3515L20.2129 15.5536L15.181 14.1813L14.7235 10.9791V6.4047C14.7235 6.03874 14.1136 3.8125 13.8086 2.74512L15.6384 3.20257Z" fill="#A4860D" fill-opacity="0.67"/>
<path d="M13.3513 2.28752L9.69168 5.03221L8.31934 8.23434L8.77679 11.4365V13.2663L10.1491 14.1812L14.7236 15.0961L15.1811 10.0641L14.2662 5.48965C14.2662 5.1237 14.8761 2.89745 15.1811 1.83008L13.3513 2.28752Z" fill="#A4860D" fill-opacity="0.67"/>
<path d="M21.128 16.9251L17.4687 15.0954L12.4368 15.2718L9.10066 14.9697L5.88016 15.2718L4.05251 15.1834L2.83008 16.4953V20.5846L6.9413 21.7349L11.5547 21.0423C11.9202 21.06 14.1144 21.7768 15.1657 22.133L19.7559 20.5848L21.128 16.9251Z" fill="#A4860D" fill-opacity="0.67"/>
<path d="M1.87508 20.3892C2.74535 21.8811 4.23724 22.7514 5.97778 23H6.22643L11.0751 22.3784C11.3237 22.3784 11.5724 22.3784 11.821 22.3784H11.9453C12.194 22.3784 12.4426 22.3784 12.567 22.3784L17.4156 23C17.5399 23 17.6643 23 17.6643 23C20.5237 22.627 22.6372 20.3892 22.6372 17.5297C22.6372 16.9081 22.5129 16.1622 22.2643 15.5405C22.1399 15.4162 22.1399 15.1676 21.8913 15.0432L22.2643 12.6811C22.7616 9.94594 22.0156 7.08649 20.2751 5.0973C18.6589 3.23243 16.5454 1.98919 14.1832 1.49189C14.1832 1.36757 14.1832 1.36757 14.1832 1.24324C14.1832 0.497297 13.6859 0 12.9399 0H10.4535C9.70751 0 9.21021 0.497297 9.21021 1.24324C9.21021 1.36757 9.21021 1.36757 9.21021 1.49189C6.84805 2.11351 4.48589 3.60541 2.86967 5.71892C1.50211 7.58378 0.880483 10.1946 1.25346 12.6811L1.62643 15.0432C1.50211 15.1676 1.37778 15.2919 1.25346 15.5405C0.756158 17.1568 1.00481 18.8973 1.87508 20.3892ZM18.4102 6.83784C19.6535 8.32973 20.2751 10.3189 19.9021 12.4324L19.5291 14.4216C19.4048 14.4216 19.1562 14.2973 19.0318 14.2973C18.7832 14.2973 18.5345 14.173 18.2859 14.173C17.7886 14.0486 17.4156 14.0486 16.9183 13.9243C16.6697 13.9243 16.421 13.8 16.1724 13.8C17.4156 9.94595 16.5454 6.71351 15.0535 4.35135C16.2967 4.84865 17.5399 5.71892 18.4102 6.83784ZM11.821 4.22703C13.0643 5.71892 15.4264 9.07568 13.5616 13.5514C12.9399 13.5514 12.4426 13.5514 11.821 13.5514C11.1994 13.5514 10.7021 13.5514 10.0805 13.5514C8.21562 9.07568 10.5778 5.5946 11.821 4.22703ZM4.85886 7.21081C5.85346 5.84324 7.22102 4.84865 8.58859 4.35135C7.22102 6.71351 6.22643 9.94595 7.46967 13.8C7.22102 13.8 6.97238 13.8 6.72373 13.9243C6.22643 14.0486 5.72913 14.0486 5.35616 14.173C5.10751 14.173 4.85886 14.2973 4.61021 14.2973C4.48589 14.2973 4.23724 14.4216 4.11292 14.4216L3.73994 12.3081C3.36697 10.4432 3.86427 8.57838 4.85886 7.21081ZM3.49129 17.0324C3.86427 16.9081 4.11292 16.9081 4.48589 16.7838C4.85886 16.6595 5.10751 16.6595 5.48048 16.5351C5.85346 16.4108 6.35075 16.4108 6.72373 16.2865C6.97238 16.2865 7.22103 16.1622 7.594 16.1622C8.0913 16.2865 8.58859 16.1622 9.21021 16.1622C9.33454 16.1622 9.58319 16.1622 9.70751 16.1622C11.0751 16.0378 12.567 16.0378 13.9345 16.1622C14.0589 16.1622 14.3075 16.1622 14.4318 16.1622C14.9291 16.1622 15.5508 16.2865 16.0481 16.2865C16.2967 16.2865 16.5454 16.4108 16.9183 16.4108C17.2913 16.4108 17.7886 16.5351 18.1616 16.6595C18.5345 16.6595 18.7832 16.7838 19.1562 16.9081C19.5291 17.0324 19.7778 17.0324 20.1508 17.1568C20.1508 17.2811 20.1508 17.4054 20.1508 17.6541C20.1508 19.1459 19.0318 20.3892 17.5399 20.6378L12.9399 19.8919C12.6913 19.8919 12.3183 19.8919 11.9453 19.8919H11.6967C11.3237 19.8919 11.0751 19.8919 10.7021 19.8919L6.10211 20.5135C5.23184 20.3892 4.48589 19.8919 3.98859 19.1459C3.61562 18.4 3.49129 17.7784 3.49129 17.0324Z" fill="#FACC15"/>
<path d="M38.4041 4.11662L34.7445 6.8613L33.3721 10.0634L33.8296 13.2656L35.2019 16.0102L38.8615 15.0954L39.319 11.8932V7.31875C39.319 6.95279 39.9289 4.72655 40.2338 3.65918L38.4041 4.11662Z" fill="#A4860D" fill-opacity="0.67"/>
<path d="M46.6384 3.20257L50.298 5.94725L51.6703 9.14938V12.3515L51.2129 15.5536L46.181 14.1813L45.7235 10.9791V6.4047C45.7235 6.03874 45.1136 3.8125 44.8086 2.74512L46.6384 3.20257Z" fill="#A4860D" fill-opacity="0.67"/>
<path d="M44.3512 2.28752L40.6916 5.03221L39.3193 8.23434L39.7767 11.4365V13.2663L41.149 14.1812L45.7235 15.0961L46.181 10.0641L45.2661 5.48965C45.2661 5.1237 45.876 2.89745 46.181 1.83008L44.3512 2.28752Z" fill="#A4860D" fill-opacity="0.67"/>
<path d="M52.128 16.9251L48.4687 15.0954L43.4368 15.2718L40.1007 14.9697L36.8802 15.2718L35.0525 15.1834L33.8301 16.4953V20.5846L37.9413 21.7349L42.5547 21.0423C42.9202 21.06 45.1144 21.7768 46.1657 22.133L50.7559 20.5848L52.128 16.9251Z" fill="#A4860D" fill-opacity="0.67"/>
<path d="M32.8751 20.3892C33.7453 21.8811 35.2372 22.7514 36.9778 23H37.2264L42.0751 22.3784C42.3237 22.3784 42.5724 22.3784 42.821 22.3784H42.9453C43.194 22.3784 43.4426 22.3784 43.567 22.3784L48.4156 23C48.5399 23 48.6643 23 48.6643 23C51.5237 22.627 53.6372 20.3892 53.6372 17.5297C53.6372 16.9081 53.5129 16.1622 53.2643 15.5405C53.1399 15.4162 53.1399 15.1676 52.8913 15.0432L53.2643 12.6811C53.7616 9.94594 53.0156 7.08649 51.2751 5.0973C49.6589 3.23243 47.5454 1.98919 45.1832 1.49189C45.1832 1.36757 45.1832 1.36757 45.1832 1.24324C45.1832 0.497297 44.6859 0 43.9399 0H41.4535C40.7075 0 40.2102 0.497297 40.2102 1.24324C40.2102 1.36757 40.2102 1.36757 40.2102 1.49189C37.8481 2.11351 35.4859 3.60541 33.8697 5.71892C32.5021 7.58378 31.8805 10.1946 32.2535 12.6811L32.6264 15.0432C32.5021 15.1676 32.3778 15.2919 32.2535 15.5405C31.7562 17.1568 32.0048 18.8973 32.8751 20.3892ZM49.4102 6.83784C50.6535 8.32973 51.2751 10.3189 50.9021 12.4324L50.5291 14.4216C50.4048 14.4216 50.1562 14.2973 50.0318 14.2973C49.7832 14.2973 49.5345 14.173 49.2859 14.173C48.7886 14.0486 48.4156 14.0486 47.9183 13.9243C47.6697 13.9243 47.421 13.8 47.1724 13.8C48.4156 9.94595 47.5454 6.71351 46.0535 4.35135C47.2967 4.84865 48.5399 5.71892 49.4102 6.83784ZM42.821 4.22703C44.0643 5.71892 46.4264 9.07568 44.5616 13.5514C43.9399 13.5514 43.4426 13.5514 42.821 13.5514C42.1994 13.5514 41.7021 13.5514 41.0805 13.5514C39.2156 9.07568 41.5778 5.5946 42.821 4.22703ZM35.8589 7.21081C36.8535 5.84324 38.221 4.84865 39.5886 4.35135C38.221 6.71351 37.2264 9.94595 38.4697 13.8C38.221 13.8 37.9724 13.8 37.7237 13.9243C37.2264 14.0486 36.7291 14.0486 36.3562 14.173C36.1075 14.173 35.8589 14.2973 35.6102 14.2973C35.4859 14.2973 35.2372 14.4216 35.1129 14.4216L34.7399 12.3081C34.367 10.4432 34.8643 8.57838 35.8589 7.21081ZM34.4913 17.0324C34.8643 16.9081 35.1129 16.9081 35.4859 16.7838C35.8589 16.6595 36.1075 16.6595 36.4805 16.5351C36.8535 16.4108 37.3508 16.4108 37.7237 16.2865C37.9724 16.2865 38.221 16.1622 38.594 16.1622C39.0913 16.2865 39.5886 16.1622 40.2102 16.1622C40.3345 16.1622 40.5832 16.1622 40.7075 16.1622C42.0751 16.0378 43.567 16.0378 44.9345 16.1622C45.0589 16.1622 45.3075 16.1622 45.4318 16.1622C45.9291 16.1622 46.5508 16.2865 47.0481 16.2865C47.2967 16.2865 47.5454 16.4108 47.9183 16.4108C48.2913 16.4108 48.7886 16.5351 49.1616 16.6595C49.5345 16.6595 49.7832 16.7838 50.1562 16.9081C50.5291 17.0324 50.7778 17.0324 51.1508 17.1568C51.1508 17.2811 51.1508 17.4054 51.1508 17.6541C51.1508 19.1459 50.0318 20.3892 48.5399 20.6378L43.9399 19.8919C43.6913 19.8919 43.3183 19.8919 42.9453 19.8919H42.6967C42.3237 19.8919 42.0751 19.8919 41.7021 19.8919L37.1021 20.5135C36.2318 20.3892 35.4859 19.8919 34.9886 19.1459C34.6156 18.4 34.4913 17.7784 34.4913 17.0324Z" fill="#FACC15"/>
<path d="M68.4041 4.11662L64.7445 6.8613L63.3721 10.0634L63.8296 13.2656L65.2019 16.0102L68.8615 15.0954L69.319 11.8932V7.31875C69.319 6.95279 69.9289 4.72655 70.2338 3.65918L68.4041 4.11662Z" fill="#A4860D" fill-opacity="0.67"/>
<path d="M76.6384 3.20257L80.298 5.94725L81.6703 9.14938V12.3515L81.2129 15.5536L76.181 14.1813L75.7235 10.9791V6.4047C75.7235 6.03874 75.1136 3.8125 74.8086 2.74512L76.6384 3.20257Z" fill="#A4860D" fill-opacity="0.67"/>
<path d="M74.3512 2.28752L70.6916 5.03221L69.3193 8.23434L69.7767 11.4365V13.2663L71.149 14.1812L75.7235 15.0961L76.181 10.0641L75.2661 5.48965C75.2661 5.1237 75.876 2.89745 76.181 1.83008L74.3512 2.28752Z" fill="#A4860D" fill-opacity="0.67"/>
<path d="M82.128 16.9251L78.4687 15.0954L73.4368 15.2718L70.1007 14.9697L66.8802 15.2718L65.0525 15.1834L63.8301 16.4953V20.5846L67.9413 21.7349L72.5547 21.0423C72.9202 21.06 75.1144 21.7768 76.1657 22.133L80.7559 20.5848L82.128 16.9251Z" fill="#A4860D" fill-opacity="0.67"/>
<path d="M62.8751 20.3892C63.7453 21.8811 65.2372 22.7514 66.9778 23H67.2264L72.0751 22.3784C72.3237 22.3784 72.5724 22.3784 72.821 22.3784H72.9453C73.194 22.3784 73.4426 22.3784 73.567 22.3784L78.4156 23C78.5399 23 78.6643 23 78.6643 23C81.5237 22.627 83.6372 20.3892 83.6372 17.5297C83.6372 16.9081 83.5129 16.1622 83.2643 15.5405C83.1399 15.4162 83.1399 15.1676 82.8913 15.0432L83.2643 12.6811C83.7616 9.94594 83.0156 7.08649 81.2751 5.0973C79.6589 3.23243 77.5454 1.98919 75.1832 1.49189C75.1832 1.36757 75.1832 1.36757 75.1832 1.24324C75.1832 0.497297 74.6859 0 73.9399 0H71.4535C70.7075 0 70.2102 0.497297 70.2102 1.24324C70.2102 1.36757 70.2102 1.36757 70.2102 1.49189C67.8481 2.11351 65.4859 3.60541 63.8697 5.71892C62.5021 7.58378 61.8805 10.1946 62.2535 12.6811L62.6264 15.0432C62.5021 15.1676 62.3778 15.2919 62.2535 15.5405C61.7562 17.1568 62.0048 18.8973 62.8751 20.3892ZM79.4102 6.83784C80.6535 8.32973 81.2751 10.3189 80.9021 12.4324L80.5291 14.4216C80.4048 14.4216 80.1562 14.2973 80.0318 14.2973C79.7832 14.2973 79.5345 14.173 79.2859 14.173C78.7886 14.0486 78.4156 14.0486 77.9183 13.9243C77.6697 13.9243 77.421 13.8 77.1724 13.8C78.4156 9.94595 77.5454 6.71351 76.0535 4.35135C77.2967 4.84865 78.5399 5.71892 79.4102 6.83784ZM72.821 4.22703C74.0643 5.71892 76.4264 9.07568 74.5616 13.5514C73.9399 13.5514 73.4426 13.5514 72.821 13.5514C72.1994 13.5514 71.7021 13.5514 71.0805 13.5514C69.2156 9.07568 71.5778 5.5946 72.821 4.22703ZM65.8589 7.21081C66.8535 5.84324 68.221 4.84865 69.5886 4.35135C68.221 6.71351 67.2264 9.94595 68.4697 13.8C68.221 13.8 67.9724 13.8 67.7237 13.9243C67.2264 14.0486 66.7291 14.0486 66.3562 14.173C66.1075 14.173 65.8589 14.2973 65.6102 14.2973C65.4859 14.2973 65.2372 14.4216 65.1129 14.4216L64.7399 12.3081C64.367 10.4432 64.8643 8.57838 65.8589 7.21081ZM64.4913 17.0324C64.8643 16.9081 65.1129 16.9081 65.4859 16.7838C65.8589 16.6595 66.1075 16.6595 66.4805 16.5351C66.8535 16.4108 67.3508 16.4108 67.7237 16.2865C67.9724 16.2865 68.221 16.1622 68.594 16.1622C69.0913 16.2865 69.5886 16.1622 70.2102 16.1622C70.3345 16.1622 70.5832 16.1622 70.7075 16.1622C72.0751 16.0378 73.567 16.0378 74.9345 16.1622C75.0589 16.1622 75.3075 16.1622 75.4318 16.1622C75.9291 16.1622 76.5508 16.2865 77.0481 16.2865C77.2967 16.2865 77.5454 16.4108 77.9183 16.4108C78.2913 16.4108 78.7886 16.5351 79.1616 16.6595C79.5345 16.6595 79.7832 16.7838 80.1562 16.9081C80.5291 17.0324 80.7778 17.0324 81.1508 17.1568C81.1508 17.2811 81.1508 17.4054 81.1508 17.6541C81.1508 19.1459 80.0318 20.3892 78.5399 20.6378L73.9399 19.8919C73.6913 19.8919 73.3183 19.8919 72.9453 19.8919H72.6967C72.3237 19.8919 72.0751 19.8919 71.7021 19.8919L67.1021 20.5135C66.2318 20.3892 65.4859 19.8919 64.9886 19.1459C64.6156 18.4 64.4913 17.7784 64.4913 17.0324Z" fill="#FACC15"/>
<path d="M98.4041 4.11662L94.7445 6.8613L93.3721 10.0634L93.8296 13.2656L95.2019 16.0102L98.8615 15.0954L99.319 11.8932V7.31875C99.319 6.95279 99.9289 4.72655 100.234 3.65918L98.4041 4.11662Z" fill="#A4860D" fill-opacity="0.67"/>
<path d="M106.638 3.20257L110.298 5.94725L111.67 9.14938V12.3515L111.213 15.5536L106.181 14.1813L105.723 10.9791V6.4047C105.723 6.03874 105.113 3.8125 104.809 2.74512L106.638 3.20257Z" fill="#A4860D" fill-opacity="0.67"/>
<path d="M104.351 2.28752L100.691 5.03221L99.3193 8.23434L99.7767 11.4365V13.2663L101.149 14.1812L105.723 15.0961L106.181 10.0641L105.266 5.48965C105.266 5.1237 105.876 2.89745 106.181 1.83008L104.351 2.28752Z" fill="#A4860D" fill-opacity="0.67"/>
<path d="M112.128 16.9251L108.468 15.0954L103.436 15.2718L100.1 14.9697L96.8802 15.2718L95.0525 15.1834L93.8301 16.4953V20.5846L97.9413 21.7349L102.554 21.0423C102.92 21.06 105.114 21.7768 106.165 22.133L110.756 20.5848L112.128 16.9251Z" fill="#A4860D" fill-opacity="0.67"/>
<path d="M92.8751 20.3892C93.7453 21.8811 95.2372 22.7514 96.9778 23H97.2264L102.075 22.3784C102.324 22.3784 102.572 22.3784 102.821 22.3784H102.945C103.194 22.3784 103.443 22.3784 103.567 22.3784L108.416 23C108.54 23 108.664 23 108.664 23C111.524 22.627 113.637 20.3892 113.637 17.5297C113.637 16.9081 113.513 16.1622 113.264 15.5405C113.14 15.4162 113.14 15.1676 112.891 15.0432L113.264 12.6811C113.762 9.94594 113.016 7.08649 111.275 5.0973C109.659 3.23243 107.545 1.98919 105.183 1.49189C105.183 1.36757 105.183 1.36757 105.183 1.24324C105.183 0.497297 104.686 0 103.94 0H101.453C100.708 0 100.21 0.497297 100.21 1.24324C100.21 1.36757 100.21 1.36757 100.21 1.49189C97.8481 2.11351 95.4859 3.60541 93.8697 5.71892C92.5021 7.58378 91.8805 10.1946 92.2535 12.6811L92.6264 15.0432C92.5021 15.1676 92.3778 15.2919 92.2535 15.5405C91.7562 17.1568 92.0048 18.8973 92.8751 20.3892ZM109.41 6.83784C110.653 8.32973 111.275 10.3189 110.902 12.4324L110.529 14.4216C110.405 14.4216 110.156 14.2973 110.032 14.2973C109.783 14.2973 109.535 14.173 109.286 14.173C108.789 14.0486 108.416 14.0486 107.918 13.9243C107.67 13.9243 107.421 13.8 107.172 13.8C108.416 9.94595 107.545 6.71351 106.053 4.35135C107.297 4.84865 108.54 5.71892 109.41 6.83784ZM102.821 4.22703C104.064 5.71892 106.426 9.07568 104.562 13.5514C103.94 13.5514 103.443 13.5514 102.821 13.5514C102.199 13.5514 101.702 13.5514 101.08 13.5514C99.2156 9.07568 101.578 5.5946 102.821 4.22703ZM95.8589 7.21081C96.8535 5.84324 98.221 4.84865 99.5886 4.35135C98.221 6.71351 97.2264 9.94595 98.4697 13.8C98.221 13.8 97.9724 13.8 97.7237 13.9243C97.2264 14.0486 96.7291 14.0486 96.3562 14.173C96.1075 14.173 95.8589 14.2973 95.6102 14.2973C95.4859 14.2973 95.2372 14.4216 95.1129 14.4216L94.7399 12.3081C94.367 10.4432 94.8643 8.57838 95.8589 7.21081ZM94.4913 17.0324C94.8643 16.9081 95.1129 16.9081 95.4859 16.7838C95.8589 16.6595 96.1075 16.6595 96.4805 16.5351C96.8535 16.4108 97.3508 16.4108 97.7237 16.2865C97.9724 16.2865 98.221 16.1622 98.594 16.1622C99.0913 16.2865 99.5886 16.1622 100.21 16.1622C100.335 16.1622 100.583 16.1622 100.708 16.1622C102.075 16.0378 103.567 16.0378 104.935 16.1622C105.059 16.1622 105.308 16.1622 105.432 16.1622C105.929 16.1622 106.551 16.2865 107.048 16.2865C107.297 16.2865 107.545 16.4108 107.918 16.4108C108.291 16.4108 108.789 16.5351 109.162 16.6595C109.535 16.6595 109.783 16.7838 110.156 16.9081C110.529 17.0324 110.778 17.0324 111.151 17.1568C111.151 17.2811 111.151 17.4054 111.151 17.6541C111.151 19.1459 110.032 20.3892 108.54 20.6378L103.94 19.8919C103.691 19.8919 103.318 19.8919 102.945 19.8919H102.697C102.324 19.8919 102.075 19.8919 101.702 19.8919L97.1021 20.5135C96.2318 20.3892 95.4859 19.8919 94.9886 19.1459C94.6156 18.4 94.4913 17.7784 94.4913 17.0324Z" fill="#FACC15"/>
<path d="M129.404 4.11662L125.745 6.8613L124.372 10.0634L124.83 13.2656L126.202 16.0102L129.862 15.0954L130.319 11.8932V7.31875C130.319 6.95279 130.929 4.72655 131.234 3.65918L129.404 4.11662Z" fill="#A4860D" fill-opacity="0.67"/>
<path d="M137.638 3.20257L141.298 5.94725L142.67 9.14938V12.3515L142.213 15.5536L137.181 14.1813L136.723 10.9791V6.4047C136.723 6.03874 136.113 3.8125 135.809 2.74512L137.638 3.20257Z" fill="#A4860D" fill-opacity="0.67"/>
<path d="M135.351 2.28752L131.691 5.03221L130.319 8.23434L130.777 11.4365V13.2663L132.149 14.1812L136.723 15.0961L137.181 10.0641L136.266 5.48965C136.266 5.1237 136.876 2.89745 137.181 1.83008L135.351 2.28752Z" fill="#A4860D" fill-opacity="0.67"/>
<path d="M143.128 16.9251L139.468 15.0954L134.436 15.2718L131.1 14.9697L127.88 15.2718L126.052 15.1834L124.83 16.4953V20.5846L128.941 21.7349L133.554 21.0423C133.92 21.06 136.114 21.7768 137.165 22.133L141.756 20.5848L143.128 16.9251Z" fill="#A4860D" fill-opacity="0.67"/>
<path d="M123.875 20.3892C124.745 21.8811 126.237 22.7514 127.978 23H128.226L133.075 22.3784C133.324 22.3784 133.572 22.3784 133.821 22.3784H133.945C134.194 22.3784 134.443 22.3784 134.567 22.3784L139.416 23C139.54 23 139.664 23 139.664 23C142.524 22.627 144.637 20.3892 144.637 17.5297C144.637 16.9081 144.513 16.1622 144.264 15.5405C144.14 15.4162 144.14 15.1676 143.891 15.0432L144.264 12.6811C144.762 9.94594 144.016 7.08649 142.275 5.0973C140.659 3.23243 138.545 1.98919 136.183 1.49189C136.183 1.36757 136.183 1.36757 136.183 1.24324C136.183 0.497297 135.686 0 134.94 0H132.453C131.708 0 131.21 0.497297 131.21 1.24324C131.21 1.36757 131.21 1.36757 131.21 1.49189C128.848 2.11351 126.486 3.60541 124.87 5.71892C123.502 7.58378 122.88 10.1946 123.253 12.6811L123.626 15.0432C123.502 15.1676 123.378 15.2919 123.253 15.5405C122.756 17.1568 123.005 18.8973 123.875 20.3892ZM140.41 6.83784C141.653 8.32973 142.275 10.3189 141.902 12.4324L141.529 14.4216C141.405 14.4216 141.156 14.2973 141.032 14.2973C140.783 14.2973 140.535 14.173 140.286 14.173C139.789 14.0486 139.416 14.0486 138.918 13.9243C138.67 13.9243 138.421 13.8 138.172 13.8C139.416 9.94595 138.545 6.71351 137.053 4.35135C138.297 4.84865 139.54 5.71892 140.41 6.83784ZM133.821 4.22703C135.064 5.71892 137.426 9.07568 135.562 13.5514C134.94 13.5514 134.443 13.5514 133.821 13.5514C133.199 13.5514 132.702 13.5514 132.08 13.5514C130.216 9.07568 132.578 5.5946 133.821 4.22703ZM126.859 7.21081C127.853 5.84324 129.221 4.84865 130.589 4.35135C129.221 6.71351 128.226 9.94595 129.47 13.8C129.221 13.8 128.972 13.8 128.724 13.9243C128.226 14.0486 127.729 14.0486 127.356 14.173C127.108 14.173 126.859 14.2973 126.61 14.2973C126.486 14.2973 126.237 14.4216 126.113 14.4216L125.74 12.3081C125.367 10.4432 125.864 8.57838 126.859 7.21081ZM125.491 17.0324C125.864 16.9081 126.113 16.9081 126.486 16.7838C126.859 16.6595 127.108 16.6595 127.48 16.5351C127.853 16.4108 128.351 16.4108 128.724 16.2865C128.972 16.2865 129.221 16.1622 129.594 16.1622C130.091 16.2865 130.589 16.1622 131.21 16.1622C131.335 16.1622 131.583 16.1622 131.708 16.1622C133.075 16.0378 134.567 16.0378 135.935 16.1622C136.059 16.1622 136.308 16.1622 136.432 16.1622C136.929 16.1622 137.551 16.2865 138.048 16.2865C138.297 16.2865 138.545 16.4108 138.918 16.4108C139.291 16.4108 139.789 16.5351 140.162 16.6595C140.535 16.6595 140.783 16.7838 141.156 16.9081C141.529 17.0324 141.778 17.0324 142.151 17.1568C142.151 17.2811 142.151 17.4054 142.151 17.6541C142.151 19.1459 141.032 20.3892 139.54 20.6378L134.94 19.8919C134.691 19.8919 134.318 19.8919 133.945 19.8919H133.697C133.324 19.8919 133.075 19.8919 132.702 19.8919L128.102 20.5135C127.232 20.3892 126.486 19.8919 125.989 19.1459C125.616 18.4 125.491 17.7784 125.491 17.0324Z" fill="#FACC15"/>
</svg>
