<svg width="38" height="38" viewBox="0 0 38 38" fill="none" xmlns="http://www.w3.org/2000/svg">
<path d="M29 19.1445C29 17.9156 28.0145 16.9397 26.8136 16.9397C26.2224 16.9397 25.6845 17.1745 25.2904 17.5542C23.7851 16.4698 21.724 15.7651 19.4301 15.6748L20.4336 10.9399L23.6953 11.6446C23.7313 12.476 24.4121 13.1446 25.2546 13.1446C26.1148 13.1446 26.8136 12.4399 26.8136 11.5721C26.8136 10.7047 26.1148 10 25.2546 10C24.6453 10 24.1075 10.3615 23.8566 10.8856L20.2188 10.1085C20.1112 10.0903 20.0037 10.1085 19.9318 10.1627C19.8423 10.2169 19.7885 10.3072 19.7708 10.4157L18.6594 15.6927C16.3298 15.7651 14.2329 16.4698 12.7096 17.5724C12.3155 17.1927 11.7776 16.9579 11.1864 16.9579C9.96775 16.9579 9 17.9517 9 19.1627C9 20.0662 9.53749 20.8251 10.2904 21.1687C10.2544 21.3853 10.2367 21.6023 10.2367 21.8374C10.2367 25.2347 14.1614 28 19.0002 28C23.8389 28 27.7637 25.2529 27.7637 21.8374C27.7637 21.6205 27.7456 21.3853 27.7099 21.1687C28.4625 20.8251 29 20.048 29 19.1445ZM13.982 20.7167C13.982 19.8492 14.6809 19.1445 15.5414 19.1445C16.4016 19.1445 17.1004 19.8492 17.1004 20.7167C17.1004 21.5841 16.4016 22.2891 15.5414 22.2891C14.6809 22.307 13.982 21.5841 13.982 20.7167ZM22.7098 24.8914C21.6345 25.9758 19.5914 26.0482 19.0002 26.0482C18.3909 26.0482 16.3478 25.9576 15.2902 24.8914C15.1292 24.7287 15.1292 24.4757 15.2902 24.313C15.4515 24.1507 15.7024 24.1507 15.8638 24.313C16.5449 24.9999 17.9786 25.2347 19.0002 25.2347C20.0217 25.2347 21.4731 24.9999 22.1362 24.313C22.2976 24.1507 22.5485 24.1507 22.7098 24.313C22.8531 24.4757 22.8531 24.7287 22.7098 24.8914ZM22.4229 22.307C21.5627 22.307 20.8638 21.6023 20.8638 20.7349C20.8638 19.8674 21.5627 19.1627 22.4229 19.1627C23.2834 19.1627 23.9822 19.8674 23.9822 20.7349C23.9822 21.5841 23.2834 22.307 22.4229 22.307Z" fill="black"/>
</svg>
